<svg width="32" height="32" viewBox="0 0 32 32" fill="none" xmlns="http://www.w3.org/2000/svg">
  <rect width="32" height="32" rx="6" fill="#28a745"/>
  <path d="M8 12C8 9.79086 9.79086 8 12 8H20C22.2091 8 24 9.79086 24 12V20C24 22.2091 22.2091 24 20 24H12C9.79086 24 8 22.2091 8 20V12Z" fill="white"/>
  <circle cx="16" cy="14" r="2" fill="#28a745"/>
  <path d="M12 18C12 16.8954 12.8954 16 14 16H18C19.1046 16 20 16.8954 20 18V20C20 21.1046 19.1046 22 18 22H14C12.8954 22 12 21.1046 12 20V18Z" fill="#28a745"/>
  <path d="M10 10L22 10" stroke="white" stroke-width="2" stroke-linecap="round"/>
  <path d="M10 22L22 22" stroke="white" stroke-width="2" stroke-linecap="round"/>
</svg>

